<svg width="120" height="30" viewBox="0 0 120 30" fill="none" xmlns="http://www.w3.org/2000/svg">
<rect width="12" height="12" fill="#E69A37"/>
<rect x="27.5" y="0.5" width="11" height="11" fill="white" stroke="white"/>
<path d="M38.1529 29C37.3987 29 36.6941 29 36.0528 28.9597C35.3302 28.9283 33.5327 28.6192 32.3901 26.3879L28.4112 18.5874C27.8018 17.8865 27.8786 16.8287 28.5828 16.2217C28.8592 16.0013 29.2038 15.8826 29.5583 15.8856C30.0867 15.9008 30.5818 16.1448 30.9132 16.5532L32.7198 18.9996L32.7469 19.0309V9.73843C32.7469 8.77831 33.5314 8 34.4992 8C35.467 8 36.2515 8.77831 36.2515 9.73843V15.8184C36.1695 14.9288 36.83 14.1417 37.7267 14.0604C38.6234 13.979 39.4167 14.6342 39.4988 15.5238C39.5078 15.6219 39.5078 15.7204 39.4988 15.8184V17.0864C39.4167 16.1968 40.0772 15.4097 40.9739 15.3284C41.8706 15.247 42.664 15.9022 42.746 16.7918C42.755 16.8898 42.755 16.9884 42.746 17.0864V18.0632C42.664 17.1736 43.3244 16.3865 44.2211 16.3051C45.1178 16.2237 45.9113 16.879 45.9932 17.7686C46.0023 17.8666 46.0023 17.9651 45.9932 18.0632V23.9908C45.9616 25.8144 45.1306 28.888 42.2086 28.888C41.9963 28.8969 40.1988 29 38.1529 29Z" fill="white" stroke="black"/>
<rect x="54.5" y="0.5" width="11" height="11" fill="white" fill-opacity="0.1" stroke="white"/>
<rect x="81.5" y="0.5" width="11" height="11" fill="white" fill-opacity="0.1" stroke="white"/>
<rect x="108.5" y="0.5" width="11" height="11" fill="white" fill-opacity="0.1" stroke="white"/>
</svg>
