<svg width="20" height="23" viewBox="0 0 20 23" fill="none" xmlns="http://www.w3.org/2000/svg">
<path d="M11.1529 22C10.3987 22 9.69413 22 9.05281 21.9597C8.3302 21.9283 6.5327 21.6192 5.39007 19.3879L1.4112 11.5874C0.801831 10.8865 0.878552 9.82873 1.58282 9.22168C1.85916 9.00129 2.20381 8.88256 2.55834 8.88564C3.08669 8.90082 3.58179 9.14478 3.91324 9.55323L5.71976 11.9996L5.74686 12.0309V2.73843C5.74686 1.77831 6.5314 1 7.49919 1C8.46698 1 9.25153 1.77831 9.25153 2.73843V8.81843C9.1695 7.92883 9.82995 7.14173 10.7267 7.06041C11.6234 6.97903 12.4167 7.63424 12.4988 8.52384C12.5078 8.62185 12.5078 8.72042 12.4988 8.81843V10.0864C12.4167 9.19681 13.0772 8.4097 13.9739 8.32838C14.8706 8.247 15.664 8.90222 15.746 9.79182C15.755 9.88983 15.755 9.9884 15.746 10.0864V11.0632C15.664 10.1736 16.3244 9.3865 17.2211 9.30513C18.1178 9.22375 18.9113 9.87896 18.9932 10.7686C19.0023 10.8666 19.0023 10.9651 18.9932 11.0632V16.9908C18.9616 18.8144 18.1306 21.888 15.2086 21.888C14.9963 21.8969 13.1988 22 11.1529 22Z" fill="white" stroke="black"/>
</svg>
